<svg height="512pt" viewBox="0 -55 512 512" width="512pt" xmlns="http://www.w3.org/2000/svg"><path d="m368.089844 150.96875h5.117187c4.140625 0 7.5-3.355469 7.5-7.5s-3.359375-7.5-7.5-7.5h-.0625v-10.476562c0-4.140626-3.359375-7.5-7.5-7.5s-7.5 3.359374-7.5 7.5v15.53125c0 5.484374 4.460938 9.945312 9.945313 9.945312zm0 0"/><path d="m396.59375 169.902344c2.214844-3.5 1.171875-8.132813-2.328125-10.347656-3.503906-2.214844-8.136719-1.171876-10.351563 2.328124-2.992187 4.734376-9.625 7.792969-16.886718 7.792969-7.265625 0-13.894532-3.058593-16.890625-7.792969-2.214844-3.5-6.847657-4.542968-10.347657-2.328124-3.5 2.214843-4.542968 6.847656-2.328124 10.347656 5.769531 9.113281 17.097656 14.773437 29.566406 14.773437s23.796875-5.660156 29.566406-14.773437zm0 0"/><path d="m402.582031 125.621094c4.144531 0 7.5-3.355469 7.5-7.5v-7.074219c0-4.144531-3.355469-7.5-7.5-7.5-4.140625 0-7.5 3.355469-7.5 7.5v7.074219c0 4.144531 3.359375 7.5 7.5 7.5zm0 0"/><path d="m338.964844 118.121094v-7.074219c0-4.144531-3.355469-7.5-7.5-7.5-4.140625 0-7.5 3.355469-7.5 7.5v7.074219c0 4.144531 3.359375 7.5 7.5 7.5 4.144531 0 7.5-3.355469 7.5-7.5zm0 0"/><path d="m145.804688 151.398438h5.105468c4.144532 0 7.5-3.359376 7.5-7.5 0-4.144532-3.355468-7.5-7.5-7.5l-.046875-10.445313c0-4.144531-3.355469-7.5-7.5-7.5-4.140625 0-7.5 3.355469-7.5 7.5v15.507813c0 5.476562 4.460938 9.9375 9.941407 9.9375zm0 0"/><path d="m174.269531 170.292969c2.214844-3.5 1.171875-8.132813-2.328125-10.347657-3.5-2.214843-8.132812-1.171874-10.347656 2.324219-2.988281 4.722657-9.601562 7.777344-16.851562 7.777344-7.246094 0-13.859376-3.054687-16.847657-7.777344-2.214843-3.496093-6.847656-4.539062-10.347656-2.324219-3.5 2.214844-4.542969 6.847657-2.328125 10.347657 5.757812 9.101562 17.070312 14.753906 29.523438 14.753906 12.457031 0 23.769531-5.652344 29.527343-14.753906zm0 0"/><path d="m180.238281 126.09375c4.144531 0 7.5-3.355469 7.5-7.5v-7.0625c0-4.144531-3.355469-7.5-7.5-7.5-4.140625 0-7.5 3.355469-7.5 7.5v7.0625c0 4.144531 3.359375 7.5 7.5 7.5zm0 0"/><path d="m116.742188 118.59375v-7.0625c0-4.144531-3.355469-7.5-7.5-7.5-4.140626 0-7.5 3.355469-7.5 7.5v7.0625c0 4.144531 3.359374 7.5 7.5 7.5 4.144531 0 7.5-3.355469 7.5-7.5zm0 0"/><path d="m483.628906 248.527344c-.246094-.164063-14.296875-9.550782-70.109375-23.902344-5.375-1.382812-9.417969-5.742188-9.417969-11.257812v-5.707032c3.414063-1.980468 6.800782-4.21875 10.078126-6.722656 13.597656-10.386719 29.808593-28.761719 29.808593-57.261719l.007813-1.730469c2.695312-.148437 5.273437-.75 7.660156-1.71875v71.910157c0 4.140625 3.359375 7.5 7.5 7.5 4.144531 0 7.5-3.359375 7.5-7.5v-136.832031c0-21.070313-8.921875-41.300782-24.484375-55.507813-15.558594-14.207031-36.515625-21.261719-57.503906-19.351563-12.003907 1.09375-23.300781 1.09375-35.285157 0-20.980468-1.90625-41.941406 5.144532-57.503906 19.351563-15.558594 14.207031-24.484375 34.4375-24.484375 55.507813v136.710937c0 4.144531 3.359375 7.5 7.5 7.5 4.144531 0 7.5-3.355469 7.5-7.5v-71.789063c2.390625.96875 4.96875 1.566407 7.664063 1.71875l.007812 1.699219c0 28.53125 16.207032 46.90625 29.804688 57.292969 3.28125 2.507812 6.664062 4.742188 10.078125 6.722656v5.707032c0 5.515624-3.960938 10.25-9.417969 11.257812-22.507812 4.15625-44.351562 11.320312-64.980469 21.304688-12.125-5.828126-24.796875-10.730469-37.765625-14.597657l-20.421875-15.050781c-4.636719-3.414062-10.375-4.351562-15.59375-2.878906 0-1.117188.003907-2.234375.003907-3.347656 0-1.050782.09375-2.152344-.066407-3.191407 5.488281-3.996093 10.410157-8.527343 14.910157-13.019531 12.289062-12.269531 24.90625-27.820312 25.273437-50.125.003906-.046875.003906-.097656.003906-.148438l-.003906-1.199218c12.457031-.855469 22.328125-11.265625 22.328125-23.941406v-7.804688c0-4.683594-1.347656-9.058594-3.679688-12.753906v-41.984375c0-5.957031-1.949218-11.734375-5.472656-16.464844 1.761719-5.210937 2.71875-10.792969 2.71875-16.59375v-13.28125c0-5.265625-4.28125-9.546875-9.546875-9.546875h-123.503906c-17.914063 0-32.863281 12.585938-36.320313 29.578125-11.304687 3.59375-19.46875 14.160156-19.46875 26.308594v41.980469c-2.332031 3.699218-3.679687 8.074218-3.679687 12.757812v7.804688c0 12.761718 10.011719 23.226562 22.589844 23.953124 0 0 .007812 1.8125.007812 1.863282.242188 10.296875 3.015625 19.789062 8.484375 29.027344 7.742188 13.078124 19.164063 24.316406 31.367188 33.269531v6.851562c-5.21875-1.464843-10.949219-.527343-15.578125 2.886719l-20.414063 15.039062c-14.710937 4.390626-29.046875 10.105469-42.628906 17-17.945312 9.109376-29.09375 27.273438-29.09375 47.398438v22.453125c0 4.140625 3.359375 7.5 7.5 7.5s7.5-3.359375 7.5-7.5v-22.453125c0-14.445312 8.003906-27.484375 20.886719-34.023438 11.589843-5.882812 23.769531-10.855468 36.273437-14.816406l22.132813 30.957032c2.652343 3.710937 6.890625 5.722656 11.195312 5.722656 2.433594 0 4.882813-.640625 7.082031-1.976563l32.179688-19.550781 32.179688 19.550781c2.199218 1.335938 4.652343 1.976563 7.082031 1.976563 4.304687 0 8.542969-2.011719 11.195312-5.722656l22.132813-30.953126c12.496094 3.957032 24.667968 8.929688 36.257812 14.8125 12.882813 6.539063 20.886719 19.574219 20.886719 34.023438v91.898438h-28.328125v-44.792969c0-4.144531-3.359375-7.5-7.5-7.5-4.144531 0-7.5 3.355469-7.5 7.5v44.792969h-172.828125v-44.792969c0-4.144531-3.355469-7.5-7.5-7.5-4.140625 0-7.5 3.355469-7.5 7.5v44.792969h-23.8125c-2.488281 0-4.515625-2.027344-4.515625-4.519532v-30.039062c0-4.144532-3.359375-7.5-7.5-7.5s-7.5 3.355468-7.5 7.5v30.039062c0 10.761719 8.753906 19.519532 19.515625 19.519532h472.96875c10.761719 0 19.515625-8.757813 19.515625-19.519532v-81.558594c0-19.117187-12.464844-42.402343-28.371094-53.011718zm-39.578125-121.65625.097657-25.628906c4.257812.722656 7.507812 4.433593 7.507812 8.898437v7.816406c0 4.496094-3.300781 8.234375-7.605469 8.914063zm-142.058593-96c12.457031-11.371094 29.234374-17.015625 46.027343-15.484375 12.910157 1.175781 25.117188 1.171875 38.007813 0 16.792968-1.53125 33.574218 4.113281 46.03125 15.484375 12.453125 11.371094 19.597656 27.566406 19.597656 44.433594v12.566406c-2.378906-.964844-4.945312-1.5625-7.632812-1.714844-.820313-4.480469-4.457032-8.074219-9.109376-8.707031-8.34375-1.136719-37.375-6.550781-60.554687-28.390625-4.113281-3.875-10.554687-3.871094-14.671875 0-23.179688 21.839844-52.210938 27.253906-60.554688 28.390625-4.648437.632812-8.289062 4.226562-9.109374 8.707031-2.683594.152344-5.25.75-7.628907 1.714844v-12.566406c0-16.867188 7.140625-33.0625 19.597657-44.433594zm-19.597657 87.085937v-7.816406c0-4.460937 3.25-8.175781 7.507813-8.898437l.097656 25.628906c-4.304688-.679688-7.605469-4.417969-7.605469-8.914063zm22.667969 25.660157-.199219-51.882813c12.058594-2.113281 39.097657-8.871094 62.160157-29.074219 23.066406 20.199219 50.105468 26.960938 62.164062 29.074219l-.199219 51.910156c0 22.398438-13.003906 37.039063-23.914062 45.375-13.5 10.316407-29.140625 15.25-38.050781 15.496094-8.910157-.246094-24.546876-5.179687-38.046876-15.496094-10.910156-8.335937-23.914062-22.976562-23.914062-45.402343zm18.191406 95.757812c12.117188-2.238281 21.03125-12.484375 21.65625-24.636719l-.003906-.011719c8.34375 3.113282 16.097656 4.660157 21.957031 4.785157.054688.003906.269531.003906.320313 0 5.863281-.125 13.617187-1.675781 21.960937-4.785157l-.007812.011719c.625 12.152344 9.542969 22.398438 21.660156 24.636719 3.546875.652344 7.078125 1.390625 10.589844 2.199219-4.457031 5.476562-10.402344 11.730469-17.296875 17.238281-8.957032 7.15625-22.871094 15.6875-38.277344 15.6875-22.203125 0-43.066406-18.136719-55.042969-32.476562 4.132813-.992188 8.296875-1.875 12.484375-2.648438zm-94.039062-120.945312c0 4.410156-3.1875 8.089843-7.375 8.851562l-.078125-25.523438c4.226562.730469 7.453125 4.429688 7.453125 8.867188zm-3.675782-31.207032c-1.691406-.386718-3.445312-.589844-5.25-.59375-1.964843-6.882812-5.816406-12.917968-10.96875-17.527344 6.234376-3.164062 11.746094-7.550781 16.21875-12.84375zm-149.742187-43.90625c3.773437-.308594 6.726563-3.382812 6.882813-7.167968.488281-11.859376 10.175781-21.148438 22.054687-21.148438h118.046875v7.828125c0 20.109375-16.1875 36.507813-36.21875 36.851563-.238281-.007813-81.492188.003906-81.492188.003906-7.953124 0-14.476562 6.226562-14.960937 14.058594-1.710937 7.269531-8.160156 12.886718-14.90625 12.886718-3.75 0-7.574219-.242187-11.257813.59375v-31.335937c0-6.507813 5.203126-12.027344 11.851563-12.570313zm-15.53125 75.113282v-7.804688c0-4.441406 3.234375-8.140625 7.464844-8.867188l.082031 25.550782c-4.273438-.695313-7.546875-4.410156-7.546875-8.878906zm22.597656 25.539062-.136719-43.394531c10.859376-3.074219 19.824219-12.554688 22.207032-24.421875.097656-.484375.140625-.972656.140625-1.46875h81.097656c10.84375.878906 19.421875 9.304687 20.464844 20.160156.035156.363281.253906 48.695312.253906 48.695312-.289063 15.929688-8.554687 27.386719-20.875 39.6875-11.066406 11.046876-23.683594 21.308594-40.929687 21.609376-17.234376-.183594-29.925782-10.363282-41.078126-21.34375-12.402343-12.214844-20.746093-23.613282-21.144531-39.523438zm62.183594 75.871094h.066406c.039063 0 .078125 0 .113281-.003906 7.953126-.121094 15.085938-1.796876 21.542969-4.464844v8.785156l-22.019531 19.148438-22.035156-19.160157v-8.945312c6.675781 2.8125 14.070312 4.566406 22.332031 4.640625zm-39.246094 48.304687-20.273437-28.359375 15.507812-11.429687c1.171875-.859375 2.75-.792969 3.84375.15625l27.210938 23.660156zm77.898438 0-26.289063-15.972656 27.207032-23.660156c1.097656-.953125 2.675781-1.015625 3.847656-.15625l15.507812 11.429687zm313.300781 114.957031c0 2.488282-2.027344 4.515626-4.515625 4.515626h-24.046875v-44.792969c0-4.140625-3.359375-7.5-7.5-7.5s-7.5 3.359375-7.5 7.5v44.792969h-163.953125v-91.898438c0-15.8125-6.882813-30.410156-18.535156-40.363281 7.882812-3.425781 15.933593-6.429688 24.121093-8.992188 13.332032 17.855469 40.171876 43.140625 70.742188 43.140625 31.921875 0 58.847656-26.359375 71.277344-43.726562 13.257812 4.027344 26.15625 9.199218 38.566406 15.46875 11.605469 7.972656 21.34375 26.304687 21.34375 40.296875zm0 0"/></svg>