<svg height="512pt" viewBox="-68 0 512 512.00051" width="512pt" xmlns="http://www.w3.org/2000/svg"><path d="m189.597656 193.539062h6.726563c4.140625 0 7.5-3.359374 7.5-7.5 0-4.144531-3.359375-7.5-7.5-7.5h-2.4375v-16.128906c0-4.140625-3.359375-7.5-7.5-7.5s-7.5 3.359375-7.5 7.5v20.417969c0 5.90625 4.804687 10.710937 10.710937 10.710937zm0 0"/><path d="m225.070312 219.519531c2.214844-3.5 1.171876-8.132812-2.328124-10.347656s-8.132813-1.171875-10.347657 2.328125c-4.359375 6.890625-13.855469 11.339844-24.191406 11.339844s-19.832031-4.449219-24.191406-11.339844c-2.214844-3.5-6.847657-4.542969-10.347657-2.328125s-4.542968 6.847656-2.328124 10.347656c7.148437 11.300781 21.277343 18.320313 36.867187 18.320313s29.71875-7.019532 36.867187-18.320313zm0 0"/><path d="m234.9375 160.222656c4.144531 0 7.5-3.359375 7.5-7.5v-5.960937c0-4.144531-3.355469-7.5-7.5-7.5-4.140625 0-7.5 3.355469-7.5 7.5v5.960937c0 4.140625 3.359375 7.5 7.5 7.5zm0 0"/><path d="m141.460938 139.261719c-4.140626 0-7.5 3.355469-7.5 7.5v5.960937c0 4.140625 3.359374 7.5 7.5 7.5 4.140624 0 7.5-3.359375 7.5-7.5v-5.960937c0-4.144531-3.355469-7.5-7.5-7.5zm0 0"/><path d="m368.898438 435.882812c-4.140626 0-7.5 3.359376-7.5 7.5v47.253907c0 3.507812-2.855469 6.363281-6.363282 6.363281h-32.429687v-82.488281c0-4.140625-3.355469-7.5-7.5-7.5-4.140625 0-7.5 3.359375-7.5 7.5v82.488281h-238.8125v-82.488281c0-4.140625-3.355469-7.5-7.5-7.5-4.140625 0-7.5 3.359375-7.5 7.5v82.488281h-32.429688c-3.507812 0-6.363281-2.855469-6.363281-6.363281v-47.242188c0-4.144531-3.359375-7.5-7.5-7.5s-7.5 3.355469-7.5 7.5v47.242188c0 11.78125 9.585938 21.363281 21.363281 21.363281h333.671875c11.78125 0 21.363282-9.582031 21.363282-21.363281v-47.253907c0-4.140624-3.355469-7.5-7.5-7.5zm0 0"/><path d="m339.390625 325.640625c-34.1875-17.144531-80.917969-28.847656-90.617187-30.636719-11.886719-2.191406-14.195313-12.949218-14.195313-23.285156 21.539063-5.246094 41.085937-17.105469 55.800781-34.019531 17.035156-19.589844 26.421875-44.691407 26.421875-70.683594v-70.574219c0-27.035156-11.453125-52.996094-31.417969-71.222656-19.878906-18.152344-46.617187-27.195312-73.433593-24.855469h-47.5c-26.808594-2.339843-53.550781 6.703125-73.433594 24.855469-19.960937 18.226562-31.414063 44.1875-31.414063 71.222656v162.738282c0 8.597656 6.996094 15.589843 15.59375 15.589843h66.628907c0 4.949219-.421875 9.457031-3.539063 13.496094-2.632812 3.410156-6.480468 5.761719-10.65625 6.738281-23.492187 5.492188-71.949218 21.160156-90.621094 30.636719-22.828124 11.589844-37.007812 34.691406-37.007812 60.292969v21.675781c0 4.140625 3.359375 7.5 7.5 7.5s7.5-3.359375 7.5-7.5v-21.675781c0-19.921875 11.035156-37.898438 28.800781-46.914063 16.332031-8.292969 33.472657-15.203125 51.015625-20.578125 15.832032 17.730469 51.582032 29.339844 91.789063 29.339844 40.972656 0 76.949219-11.90625 92.441406-30.09375 18.445313 5.476562 36.394531 12.617188 53.554687 21.332031 17.761719 9.015625 28.796876 26.992188 28.796876 46.914063v21.574218c0 4.140626 3.359374 7.5 7.5 7.5 4.144531 0 7.5-3.359374 7.5-7.5v-21.574218c0-25.601563-14.125-48.8125-37.007813-60.292969zm-181.203125-65.078125c-.15625-.078125-.320312-.152344-.480469-.222656-6.980469-3.210938-14.171875-7.378906-20.949219-12.558594-14.761718-11.277344-32.359374-31.105469-32.359374-61.542969l-.257813-67.914062c8.757813 1.210937 22.945313 2.515625 38.769531 1.375 33.277344-2.394531 58.492188-14.640625 73.21875-35.484375l6.632813-.273438c.953125.886719 2.074219 1.621094 3.339843 2.152344l16.066407 6.765625c1.253906.523437 2.5625.820313 3.878906.886719l15.332031 17.027344c2.933594 3.257812 6.71875 5.449218 10.835938 6.390624l-.210938 69.105469c0 30.40625-17.597656 50.234375-32.359375 61.511719-6.058593 4.628906-12.445312 8.449219-18.714843 11.503906-.207032.085938-.40625.183594-.601563.289063-12.351563 5.921875-24.199219 8.851562-32.125 9.058593-7.476563-.191406-18.433594-2.808593-30.015625-8.070312zm128.683594-193.910156c2.929687-.117188 4.519531 1.726562 5.074218 2.523437.554688.800781 1.722657 2.949219.589844 5.636719l-10.214844 24.269531c-1.132812 2.6875-3.484374 3.355469-4.445312 3.519531-.957031.160157-3.398438.304688-5.351562-1.867187l-14.5-16.105469 7.191406-17.089844zm.308594 61.355468h.410156c7.835937 0 14.207031 6.378907 14.207031 14.222657v10.273437c0 7.839844-6.371094 14.21875-14.207031 14.21875h-.527344zm14.617187-11.304687c-3.554687-1.984375-7.566406-3.253906-11.832031-3.597656 6.820312-7.195313 11.699218-21.316407 11.699218-21.316407.089844 1.542969.132813 24.914063.132813 24.914063zm-57.109375-39.058594-9.46875-3.988281 6.210938-14.753906 9.46875 3.984375zm-23.785156-8.640625-21.65625.886719c-2.929688.128906-4.519532-1.726563-5.074219-2.523437-.554687-.796876-1.722656-2.945313-.589844-5.636719l10.214844-24.265625c1.128906-2.691406 3.484375-3.359375 4.441406-3.519532.960938-.160156 3.402344-.304687 5.351563 1.863282l14.503906 16.105468zm58.15625 158.851563c-2.054688 2.363281-4.222656 4.613281-6.488282 6.742187 14.492188-24.101562 14.445313-52.875 14.445313-52.875 4.871094 0 10.039063-1.199218 14.082031-3.3125-2.253906 18.230469-9.882812 35.46875-22.039062 49.445313zm-177.925782-191.558594c16.859376-15.394531 39.566407-23.039063 62.300782-20.964844.226562.023438.457031.03125.683594.03125h48.167968c.226563 0 .453125-.007812.679688-.03125 22.734375-2.074219 45.445312 5.570313 62.304687 20.964844 5.035157 4.59375 9.425781 9.773437 13.113281 15.386719-.703124-.042969-1.414062-.050782-2.128906-.019532l-22.890625.941407c-.96875-.898438-2.09375-1.628907-3.347656-2.15625l-16.066406-6.761719c-1.25-.527344-2.5625-.824219-3.878907-.886719l-15.332031-17.027343c-4.808593-5.339844-11.910156-7.816407-18.996093-6.621094-7.085938 1.199218-12.980469 5.867187-15.769532 12.492187l-10.214844 24.269531c-2.789062 6.621094-2.007812 14.101563 2.089844 20.007813 3.328125 4.792969 8.394532 7.902344 14.027344 8.746094-33.46875 30.863281-96.949219 17.613281-97.671875 17.453125-2.984375-.648438-6.132813.722656-7.828125 3.234375-1.5625 2.3125-1.265625 5.003906-1.257812 7.652343h-.308594c-5.152344 0-9.996094 1.34375-14.207032 3.695313v-20.261719c0-22.832031 9.667969-44.75 26.53125-60.144531zm-26.53125 105.933594c0-7.84375 6.375-14.222657 14.207032-14.222657h.367187l.148438 38.714844h-.515625c-7.832032 0-14.207032-6.378906-14.207032-14.21875zm0 116.949219v-81.152344c4.207032 2.355468 9.625 3.695312 14.777344 3.695312l.019532 4.546875c0 36.535157 20.800781 60.097657 38.25 73.433594.03125.023437.0625.046875.09375.066406h-52.546876c-.328124 0-.59375-.265625-.59375-.589843zm112.003907 73.601562c-31.226563 0-59.734375-7.5-74.863281-19.007812 6.199218-1.53125 12.421874-2.875 18.605468-4.015626 15.339844-2.828124 26.476563-17.84375 26.476563-33.46875 11.867187 4.796876 22.996093 7.167969 31.214843 7.34375.054688 0 .105469.003907.160157.003907.054687 0 .109375 0 .160156-.003907 8.21875-.175781 19.351563-2.546874 31.21875-7.34375 0 17.371094 11.132813 30.640626 26.476563 33.46875 5.394531.996094 10.808593 2.140626 16.203124 3.429688-16.269531 12.894531-48.1875 19.59375-75.652343 19.59375zm0 0"/></svg>